<svg width="69" height="31" viewBox="0 0 69 31" fill="none" xmlns="http://www.w3.org/2000/svg">
<g clip-path="url(#clip0_1779_2)">
<path d="M6.60593 10H4V8H8.39407L8.84288 12H20V17.9384L7.76941 20.3694L6.60593 10ZM19.5 25C18.6716 25 18 24.3284 18 23.5C18 22.6716 18.6716 22 19.5 22C20.3284 22 21 22.6716 21 23.5C21 24.3284 20.3284 25 19.5 25ZM9.5 25C8.67157 25 8 24.3284 8 23.5C8 22.6716 8.67157 22 9.5 22C10.3284 22 11 22.6716 11 23.5C11 24.3284 10.3284 25 9.5 25Z" fill="black"/>
</g>
<path d="M36.276 21.204C35.3807 21.204 34.559 21.0453 33.811 20.728C33.063 20.3993 32.4113 19.946 31.856 19.368C31.312 18.7787 30.887 18.0873 30.581 17.294C30.275 16.5007 30.122 15.628 30.122 14.676C30.122 13.724 30.275 12.8513 30.581 12.058C30.887 11.2647 31.312 10.5733 31.856 9.984C32.4113 9.39467 33.063 8.94133 33.811 8.624C34.559 8.29533 35.3807 8.131 36.276 8.131C37.1373 8.131 37.908 8.284 38.588 8.59C39.2793 8.896 39.8573 9.29267 40.322 9.78C40.798 10.256 41.138 10.7603 41.342 11.293L40.067 11.854C39.7497 11.1173 39.2623 10.528 38.605 10.086C37.959 9.63267 37.1827 9.406 36.276 9.406C35.3467 9.406 34.5193 9.627 33.794 10.069C33.0687 10.511 32.502 11.1287 32.094 11.922C31.686 12.704 31.482 13.622 31.482 14.676C31.482 15.7187 31.686 16.6367 32.094 17.43C32.502 18.2233 33.0687 18.841 33.794 19.283C34.5193 19.7137 35.3467 19.929 36.276 19.929C37.1827 19.929 37.959 19.708 38.605 19.266C39.2623 18.824 39.7497 18.2347 40.067 17.498L41.342 18.059C41.138 18.5803 40.798 19.0847 40.322 19.572C39.8573 20.048 39.2793 20.439 38.588 20.745C37.908 21.051 37.1373 21.204 36.276 21.204ZM46.0592 21.204C45.4812 21.204 44.9656 21.0963 44.5122 20.881C44.0589 20.6543 43.7019 20.3483 43.4412 19.963C43.1806 19.5777 43.0502 19.1357 43.0502 18.637C43.0502 18.161 43.1522 17.7303 43.3562 17.345C43.5602 16.9483 43.8776 16.614 44.3082 16.342C44.7389 16.07 45.2886 15.8773 45.9572 15.764L49.5272 15.169V16.325L46.2632 16.869C45.6059 16.9823 45.1299 17.192 44.8352 17.498C44.5519 17.804 44.4102 18.1667 44.4102 18.586C44.4102 18.994 44.5689 19.3397 44.8862 19.623C45.2149 19.9063 45.6342 20.048 46.1442 20.048C46.7676 20.048 47.3116 19.9177 47.7762 19.657C48.2409 19.385 48.6036 19.0223 48.8642 18.569C49.1249 18.1157 49.2552 17.6113 49.2552 17.056V14.744C49.2552 14.2 49.0569 13.758 48.6602 13.418C48.2636 13.078 47.7479 12.908 47.1132 12.908C46.5579 12.908 46.0706 13.0497 45.6512 13.333C45.2319 13.605 44.9202 13.962 44.7162 14.404L43.5602 13.775C43.7302 13.3897 43.9966 13.0383 44.3592 12.721C44.7332 12.4037 45.1582 12.1543 45.6342 11.973C46.1102 11.7803 46.6032 11.684 47.1132 11.684C47.7819 11.684 48.3712 11.8143 48.8812 12.075C49.4026 12.3357 49.8049 12.6983 50.0882 13.163C50.3829 13.6163 50.5302 14.1433 50.5302 14.744V21H49.2552V19.181L49.4422 19.368C49.2836 19.708 49.0342 20.0197 48.6942 20.303C48.3656 20.575 47.9746 20.796 47.5212 20.966C47.0792 21.1247 46.5919 21.204 46.0592 21.204ZM53.1528 21V11.888H54.4278V13.384L54.2578 13.163C54.4731 12.7323 54.7961 12.3923 55.2268 12.143C55.6688 11.8937 56.2014 11.769 56.8248 11.769H57.4028V13.044H56.6038C55.9464 13.044 55.4194 13.248 55.0228 13.656C54.6261 14.064 54.4278 14.642 54.4278 15.39V21H53.1528ZM62.3819 21.102C61.5659 21.102 60.9369 20.864 60.4949 20.388C60.0529 19.912 59.8319 19.232 59.8319 18.348V13.163H58.1489V11.888H58.5739C58.9592 11.888 59.2652 11.7633 59.4919 11.514C59.7186 11.2533 59.8319 10.9303 59.8319 10.545V9.78H61.1069V11.888H63.1129V13.163H61.1069V18.348C61.1069 18.654 61.1522 18.926 61.2429 19.164C61.3336 19.3907 61.4866 19.572 61.7019 19.708C61.9286 19.844 62.2289 19.912 62.6029 19.912C62.6936 19.912 62.8012 19.9063 62.9259 19.895C63.0506 19.8837 63.1582 19.8723 63.2489 19.861V21C63.1129 21.034 62.9599 21.0567 62.7899 21.068C62.6199 21.0907 62.4839 21.102 62.3819 21.102Z" fill="black"/>
<defs>
<clipPath id="clip0_1779_2">
<rect width="17" height="17" fill="white" transform="translate(4 8)"/>
</clipPath>
</defs>
</svg>
