<svg width="47" height="45" viewBox="0 0 47 45" fill="none" xmlns="http://www.w3.org/2000/svg">
<path d="M23.8092 0C17.7914 0.0067294 12.0223 2.37942 7.76708 6.59753C3.51182 10.8157 1.11872 16.5347 1.11182 22.5V41.475C1.1128 42.4096 1.4878 43.3056 2.15491 43.9665C2.82103 44.6273 3.72497 44.9989 4.66741 45H23.8092C29.8289 45 35.6019 42.6295 39.8582 38.4099C44.1154 34.1903 46.5066 28.4674 46.5066 22.5C46.5066 16.5326 44.1154 10.8097 39.8582 6.59009C35.6019 2.37053 29.8289 0 23.8092 0Z" fill="#3F53D8"/>
<path d="M11.4263 17.2566H15.5632V12.874H11.4263V17.2566ZM11.4263 36.1958H15.5632V19.1662H11.4263V36.1958ZM26.8359 36.5714C28.4987 36.5714 30.0145 36.1958 31.3832 35.4445C32.751 34.6723 33.8464 33.6183 34.6675 32.2827C35.4885 30.9262 35.899 29.3923 35.899 27.681C35.899 25.9697 35.4885 24.4462 34.6675 23.1105C33.8671 21.7749 32.7826 20.7209 31.4148 19.9488C30.0461 19.1767 28.5194 18.7905 26.8359 18.7905C25.1306 18.7905 23.5931 19.1767 22.2253 19.9488C20.8566 20.7209 19.7622 21.7749 18.9411 23.1105C18.1408 24.4462 17.7401 25.9697 17.7401 27.681C17.7401 29.3923 18.1408 30.9158 18.9411 32.2514C19.7622 33.587 20.8566 34.641 22.2253 35.4132C23.6148 36.1853 25.1513 36.5714 26.8359 36.5714ZM26.8359 32.8149C25.9092 32.8149 25.0773 32.5958 24.3411 32.1575C23.6247 31.7192 23.0563 31.114 22.6359 30.3419C22.2352 29.5488 22.0359 28.6619 22.0359 27.681C22.0359 26.7001 22.2352 25.8236 22.6359 25.0514C23.0563 24.2793 23.6247 23.674 24.3411 23.2358C25.0773 22.7767 25.9092 22.5471 26.8359 22.5471C27.7615 22.5471 28.5727 22.7767 29.2675 23.2358C29.9829 23.674 30.5405 24.2793 30.9411 25.0514C31.3615 25.8236 31.5727 26.7001 31.5727 27.681C31.5727 28.6619 31.3615 29.5488 30.9411 30.3419C30.5405 31.114 29.9829 31.7192 29.2675 32.1575C28.5727 32.5958 27.7615 32.8149 26.8359 32.8149Z" fill="white"/>
</svg>
