<svg width="68" height="69" viewBox="0 0 68 69" fill="none" xmlns="http://www.w3.org/2000/svg">
<g clip-path="url(#clip0_0_397)">
<path d="M10.1459 60.4772H50.5464L48.6169 54.2297L53.2324 58.1907L57.4626 61.9817L65.1693 68.4219V7.43437C64.9766 3.64337 61.7126 0.421875 57.6666 0.421875L10.1601 0.430375C6.11694 0.430375 2.83594 3.65755 2.83594 7.44854V53.4619C2.83594 57.4597 6.11127 60.4772 10.1459 60.4772ZM40.0319 16.5237L39.9384 16.5577L39.9724 16.5237H40.0319ZM18.4108 20.1192C23.6043 16.3396 28.4181 16.5209 28.4181 16.5209L28.8063 16.9034C22.4511 18.4192 19.5696 21.2582 19.5696 21.2582C19.5696 21.2582 20.3403 20.8814 21.6861 20.3062C30.2456 16.9402 39.5928 17.1839 48.2458 21.4452C48.2458 21.4452 45.3586 18.7904 39.3944 17.0904L39.9214 16.5719C40.7459 16.5747 45.1093 16.7277 49.7786 20.1419C49.7786 20.1419 55.0033 29.0669 55.0033 40.0319C54.8304 39.8222 51.7619 44.7522 43.8654 44.9222C43.8654 44.9222 42.5281 43.4092 41.5761 42.0889C46.1944 40.7629 47.9228 38.1109 47.9228 38.1109C46.4069 39.0657 45.0243 39.6324 43.9023 40.1991C42.1768 40.9584 40.4484 41.3324 38.7229 41.7149C30.5516 43.0409 25.9644 40.8224 21.6294 39.0629L20.1476 38.3092C20.1476 38.3092 21.8731 40.9612 26.3073 42.2872C25.1428 43.6161 23.9896 45.1262 23.9896 45.1262C16.0959 44.9392 13.2173 40.0092 13.2173 40.0092C13.2173 29.0272 18.4108 20.1192 18.4108 20.1192Z" fill="#5865F2"/>
<path d="M40.5417 36.6063C42.5562 36.6063 44.1967 34.9063 44.1967 32.8096C44.1967 30.7271 42.5647 29.0271 40.5417 29.0271V29.0356C38.5357 29.0356 36.8924 30.73 36.8867 32.8266C36.8867 34.9063 38.5272 36.6063 40.5417 36.6063Z" fill="#5865F2"/>
<path d="M27.4597 36.6063C29.4742 36.6063 31.1147 34.9063 31.1147 32.8096C31.1147 30.7271 29.4855 29.0271 27.471 29.0271L27.4597 29.0356C25.4452 29.0356 23.8047 30.73 23.8047 32.8266C23.8047 34.9063 25.4452 36.6063 27.4597 36.6063Z" fill="#5865F2"/>
</g>
<defs>
<clipPath id="clip0_0_397">
<rect width="68" height="68" fill="white" transform="translate(0 0.421875)"/>
</clipPath>
</defs>
</svg>
