<svg width="69" height="48" viewBox="0 0 69 48" fill="none" xmlns="http://www.w3.org/2000/svg">
<g clip-path="url(#clip0_0_406)">
<path d="M51.1837 14.1608C51.1837 14.1608 45.5765 31.4294 45.1621 32.8956C44.9964 31.4566 40.9083 0.421875 40.9083 0.421875C31.3511 0.421875 26.2686 7.10126 23.5616 14.1608C23.5616 14.1608 16.739 31.4837 16.1865 32.9228C16.1589 31.5652 15.1369 14.3237 15.1369 14.3237C14.5568 5.6622 6.51882 0.421875 0 0.421875L7.84468 47.4219C17.8439 47.3947 23.2302 40.7425 26.0476 33.6559C26.0476 33.6559 32.0416 18.3693 32.2902 17.6905C32.3455 18.3422 36.5993 47.4219 36.5993 47.4219C46.6261 47.4219 52.04 41.2041 54.9403 34.389L69 0.421875C59.0837 0.421875 53.8631 7.07411 51.1837 14.1608Z" fill="#4353FF"/>
</g>
<defs>
<clipPath id="clip0_0_406">
<rect width="69" height="47" fill="white" transform="translate(0 0.421875)"/>
</clipPath>
</defs>
</svg>
