<svg width="47" height="73" viewBox="0 0 47 73" fill="none" xmlns="http://www.w3.org/2000/svg">
<g clip-path="url(#clip0_0_423)">
<path d="M11.7555 72.4219C18.2402 72.4219 23.5031 67.0459 23.5031 60.4219V48.4219H11.7555C5.27076 48.4219 0.0078125 53.7979 0.0078125 60.4219C0.0078125 67.0459 5.27076 72.4219 11.7555 72.4219Z" fill="#0ACF83"/>
<path d="M0.0078125 36.4221C0.0078125 29.7981 5.27076 24.4221 11.7555 24.4221H23.5031V48.4221H11.7555C5.27076 48.4221 0.0078125 43.0461 0.0078125 36.4221Z" fill="#A259FF"/>
<path d="M0.0078125 12.4219C0.0078125 5.79787 5.27076 0.421875 11.7555 0.421875H23.5031V24.4219H11.7555C5.27076 24.4219 0.0078125 19.0459 0.0078125 12.4219Z" fill="#F24E1E"/>
<path d="M23.5 0.421875H35.2477C41.7324 0.421875 46.9953 5.79787 46.9953 12.4219C46.9953 19.0459 41.7324 24.4219 35.2477 24.4219H23.5V0.421875Z" fill="#FF7262"/>
<path d="M46.9953 36.4221C46.9953 43.0461 41.7324 48.4221 35.2477 48.4221C28.7629 48.4221 23.5 43.0461 23.5 36.4221C23.5 29.7981 28.7629 24.4221 35.2477 24.4221C41.7324 24.4221 46.9953 29.7981 46.9953 36.4221Z" fill="#1ABCFE"/>
</g>
<defs>
<clipPath id="clip0_0_423">
<rect width="47" height="72" fill="white" transform="translate(0 0.421875)"/>
</clipPath>
</defs>
</svg>
